<svg xmlns="http://www.w3.org/2000/svg" viewBox="0 0 1490 439">
  <path d="M374.35,164.27A95.68,95.68,0,0,0,363.4,21C324-8.91,268.72-6.48,231.15,25.77L218.23,36.86a26.81,26.81,0,0,1-34.92,0L170.38,25.77C132.81-6.48,77.58-8.91,38.13,21a95.68,95.68,0,0,0-11,143.25L192.75,334.06a11.19,11.19,0,0,0,16,0Z" transform="translate(0.01 0.38)" fill="#374151"/>
  <path d="M312.21,304.49a62.93,62.93,0,0,0-55,29.79A32.72,32.72,0,0,1,229.5,350H172a32.74,32.74,0,0,1-27.74-15.7,63,63,0,1,0,.25,66A32.15,32.15,0,0,1,172,385H229.5A32.18,32.18,0,0,1,257,400.27a63,63,0,1,0,55.22-95.78Z" transform="translate(0.01 0.38)" fill="#374151"/>
  <path d="M225.55,262.9a55.26,55.26,0,0,0,16-52.52,28.73,28.73,0,0,1,7.63-26.92L285,148a28.73,28.73,0,0,1,27-7.31,55.31,55.31,0,1,0-40.88-41.07,28.26,28.26,0,0,1-7.73,26.52l-35.89,35.46a28.23,28.23,0,0,1-26.6,7.4,55.31,55.31,0,1,0,24.61,93.89Z" transform="translate(0.01 0.38)" fill="#fff"/>
  <g>
    <polygon points="463.28 2.66 560.02 2.66 560.02 14.07 475.6 14.07 475.6 74.31 554.77 74.31 554.77 85.72 475.6 85.72 475.6 162.38 463.28 162.38 463.28 2.66" fill="#374151"/>
    <rect x="588.31" y="2.66" width="12.32" height="159.73" fill="#374151"/>
    <polygon points="679.57 14.07 625.95 14.07 625.95 2.66 745.97 2.66 745.97 14.07 692.12 14.07 692.12 162.38 679.57 162.38 679.57 14.07" fill="#374151"/>
    <path d="M769.69,162V2.28H788c99.45,153.28,93.29,144.9,93.55,144.9-1.45-24.39-1.14-39.31-1.14-144.9h12.55V162H876C852.29,125,793,32.17,781.56,14.6c-.26,0,.68-6.88.68,147.41Z" transform="translate(0.01 0.38)" fill="#374151"/>
    <polygon points="1033.69 83.89 952.23 83.89 952.23 150.98 1041.45 150.98 1039.62 162.38 939.91 162.38 939.91 2.66 1037.8 2.66 1037.8 14.07 952.23 14.07 952.23 72.48 1033.69 72.48 1033.69 83.89" fill="#374151"/>
    <path d="M1075.43,119.11c4.79,21.22,18.94,33.77,45.18,33.77,29.21,0,40.39-14.6,40.39-31.94,0-53.36-91.5-23-91.5-80.32,0-54,95.64-55.41,101.54.22h-12.78c-3.65-17.11-14.83-29.43-39.93-29.43-23,0-35.6,10.72-35.6,28.52,0,45.75,91.5,17,91.5,80.09,0,23.5-17.11,43.81-54.08,43.81-39.93,0-54.53-23.27-57.5-44.72Z" transform="translate(0.01 0.38)" fill="#374151"/>
    <path d="M1210.5,119.11c4.79,21.22,18.94,33.77,45.18,33.77,29.21,0,40.39-14.6,40.39-31.94,0-53.36-91.5-23-91.5-80.32,0-54,95.64-55.41,101.54.22h-12.78c-3.65-17.11-14.83-29.43-39.93-29.43-23.05,0-35.6,10.72-35.6,28.52,0,45.75,91.5,17,91.5,80.09,0,23.5-17.11,43.81-54.08,43.81-39.93,0-54.53-23.27-57.5-44.72Z" transform="translate(0.01 0.38)" fill="#374151"/>
    <path d="M496,405.24l-9.09,30.57H442l49.66-157.15h59.62L602.9,435.81H554.81l-9.54-30.57Zm41.25-34.12c-16.79-56.12-16.15-62-17.62-62-3.64,16.93-9.65,39.35-16,62Z" transform="translate(0.01 0.38)" fill="#374151"/>
    <path d="M619.39,278.66H686.9c50,0,79,31.64,79,76.84s-28.25,80.31-79.74,80.31H619.39Zm46.1,123.8c22.4,0,52.87,5.19,52.87-47,0-48.51-30.84-43.49-52.87-43.49Z" transform="translate(0.01 0.38)" fill="#374151"/>
    <path d="M824.72,435.81l-53.8-157.15h48.92c23.35,81.26,26.74,91.32,32.69,120.54,1.06,0-3.43,7.37,34.32-120.54H934L879,435.81Z" transform="translate(0.01 0.38)" fill="#374151"/>
    <rect x="949.78" y="279.04" width="46.18" height="157.15" fill="#374151"/>
    <path d="M1062.31,388.22c2.62,13.69,12.21,19.45,27.08,19.45,13.93,0,20.35-4.87,20.35-14,0-29.05-87.39-10.72-87.39-69.47,0-26.38,19.38-48.46,63.12-48.46,45.47,0,64,23.07,66.24,47.85h-44.48c-1.21-8.43-5.53-17-21.87-17-10.55,0-17,4-17,12.48,0,25.27,88,9.71,88,69.65,0,29.52-22.76,50-68.9,50-43.46,0-66.49-20.29-70-50.51Z" transform="translate(0.01 0.38)" fill="#374151"/>
    <path d="M1332,357.1c0,44.45-26.78,81.63-80.6,81.63-52.86,0-78.41-37-78.41-81.42C1172.94,249.21,1332,246.2,1332,357.1Zm-111.52-.47c0,28.85,9.58,48.92,32.36,48.92,24,0,31.83-21.3,31.83-48.08,0-28.67-8.37-48.56-32.43-48.56C1229.82,308.91,1220.43,327.38,1220.43,356.63Z" transform="translate(0.01 0.38)" fill="#374151"/>
    <path d="M1402,376.43v59.38h-44.7V278.66h77.86c66.65,0,67.39,66,31.33,80.79,28.86,10.07,16.77,53.74,22.53,76.36h-43.89c-3.59-9.16-3.34-27.56-3.34-38.37C1441.77,374.21,1428.69,376.43,1402,376.43Zm0-32.09c21,0,42.23,3.74,42.23-16.95,0-19.87-21.35-16.64-42.23-16.64Z" transform="translate(0.01 0.38)" fill="#374151"/>
  </g>
</svg>
